# This file uses centimeters as units for non-parametric coordinates.

mtllib Upgrade.mtl
g default
v -0.137011 -0.588229 0.034857
v -0.118055 -0.595816 0.034484
v -0.118433 -0.588247 0.053467
v -0.119321 -0.569702 0.062008
v -0.137833 -0.569695 0.054327
v -0.145501 -0.569660 0.035790
v 0.137011 -0.588229 0.034858
v 0.145501 -0.569660 0.035790
v 0.137659 -0.569354 0.054354
v 0.118722 -0.569075 0.062040
v 0.118124 -0.588060 0.053478
v 0.118055 -0.595816 0.034484
v -0.198120 0.389965 0.102618
v -0.208822 0.387039 0.083347
v -0.195448 0.372707 0.083306
v -0.190009 0.354134 0.082811
v -0.181896 0.354803 0.101627
v -0.162290 0.355482 0.109413
v -0.162842 0.378179 0.110166
v -0.171992 0.393278 0.110418
v 0.198120 0.389965 0.102618
v 0.171992 0.393278 0.110418
v 0.163031 0.378270 0.110168
v 0.162584 0.355683 0.109423
v 0.181981 0.354845 0.101593
v 0.190003 0.354017 0.082656
v 0.195449 0.372680 0.083241
v 0.208822 0.387039 0.083347
v -0.198120 0.389965 -0.102618
v -0.171992 0.393278 -0.110418
v -0.163031 0.378270 -0.110168
v -0.162584 0.355683 -0.109423
v -0.181981 0.354845 -0.101593
v -0.190003 0.354017 -0.082656
v -0.195449 0.372680 -0.083242
v -0.208822 0.387039 -0.083347
v 0.198120 0.389965 -0.102618
v 0.208822 0.387039 -0.083347
v 0.195448 0.372707 -0.083305
v 0.190009 0.354134 -0.082811
v 0.181896 0.354803 -0.101627
v 0.162290 0.355482 -0.109413
v 0.162842 0.378179 -0.110166
v 0.171992 0.393278 -0.110418
v -0.137011 -0.588229 -0.034858
v -0.145501 -0.569660 -0.035790
v -0.137659 -0.569354 -0.054354
v -0.118722 -0.569075 -0.062040
v -0.118124 -0.588060 -0.053478
v -0.118055 -0.595816 -0.034484
v 0.137011 -0.588229 -0.034857
v 0.118055 -0.595816 -0.034484
v 0.118433 -0.588247 -0.053467
v 0.119321 -0.569702 -0.062008
v 0.137833 -0.569695 -0.054327
v 0.145501 -0.569660 -0.035790
v -0.377512 0.536873 0.100660
v -0.386723 0.537783 0.081899
v -0.391260 0.518589 0.083631
v -0.380605 0.502139 0.084406
v -0.364237 0.500124 0.102864
v -0.324587 0.497354 0.110418
v -0.349663 0.519653 0.109578
v -0.355235 0.535895 0.108417
v 0.377616 0.536901 0.100764
v 0.355388 0.535899 0.108510
v 0.349118 0.519804 0.109606
v 0.323003 0.496963 0.110418
v 0.363436 0.499757 0.102730
v 0.380178 0.501852 0.083892
v 0.391159 0.518524 0.083406
v 0.386810 0.537834 0.082016
v 0.377640 0.536894 -0.100685
v 0.386822 0.537826 -0.081939
v 0.391303 0.518603 -0.083664
v 0.380629 0.502155 -0.084435
v 0.364252 0.500133 -0.102873
v 0.324582 0.497353 -0.110418
v 0.349777 0.519685 -0.109586
v 0.355436 0.535895 -0.108433
v -0.377442 0.536871 -0.100733
v -0.355119 0.535899 -0.108488
v -0.348962 0.519760 -0.109598
v -0.323006 0.496963 -0.110418
v -0.363414 0.499744 -0.102718
v -0.380146 0.501831 -0.083854
v -0.391096 0.518502 -0.083361
v -0.386679 0.537777 -0.081964
v -0.041654 1.001531 0.034151
v -0.056577 0.988499 0.035081
v -0.049285 0.985037 0.054909
v -0.031050 0.982124 0.062950
v -0.023531 0.999027 0.053946
v -0.022527 1.006959 0.034171
v 0.041169 1.005524 0.035036
v 0.021551 1.009385 0.034604
v 0.022963 1.001647 0.054230
v 0.031033 0.984833 0.063256
v 0.049228 0.989038 0.055534
v 0.056514 0.992783 0.036204
v 0.023832 1.001269 -0.053792
v 0.022121 1.009015 -0.034424
v 0.041602 1.005134 -0.034266
v 0.056852 0.992416 -0.035041
v 0.049816 0.988803 -0.054606
v 0.031906 0.984704 -0.062692
v -0.041298 1.001165 -0.035182
v -0.022144 1.006579 -0.034767
v -0.022825 0.998288 -0.054490
v -0.030239 0.981055 -0.063406
v -0.048720 0.984178 -0.055827
v -0.056262 0.988128 -0.036346
v -0.133749 -0.584868 0.050201
v 0.133619 -0.584723 0.050215
v -0.186355 0.375658 0.102404
v 0.186418 0.375694 0.102391
v -0.186418 0.375694 -0.102391
v 0.186355 0.375658 -0.102403
v -0.133619 -0.584723 -0.050215
v 0.133749 -0.584868 -0.050201
v -0.379148 0.518694 0.102066
v 0.378909 0.518687 0.102035
v 0.379209 0.518711 -0.102083
v -0.378822 0.518661 -0.102014
v -0.039277 0.997249 0.050418
v 0.038867 1.001155 0.050986
v 0.039519 1.000782 -0.050206
v -0.038704 0.996559 -0.051303
vt 0.397693 0.946048
vt 0.397686 0.006724
vt 0.602307 0.946048
vt 0.679023 0.006735
vt 0.375000 0.280647
vt 0.394419 0.244946
vt 0.607005 0.244998
vt 0.657652 0.244569
vt 0.375000 0.469353
vt 0.389340 0.500000
vt 0.179023 0.006735
vt 0.392995 0.505002
vt 0.594806 0.500000
vt 0.844964 0.244599
vt 0.826499 0.006735
vt 0.602307 0.803952
vt 0.395998 0.743115
vt 0.602314 0.743276
vt 0.375000 0.469927
vt 0.375000 0.279797
vt 0.406984 0.250000
vt 0.609499 0.250000
vt 0.625000 0.280030
vt 0.625000 0.470585
vt 0.593013 0.500000
vt 0.390500 0.500000
vt 0.375000 0.465298
vt 0.375000 0.444499
vt 0.384479 0.250000
vt 0.539230 0.250000
vt 0.625000 0.305865
vt 0.625000 0.452918
vt 0.436231 0.445767
vt 0.615488 0.500000
vt 0.467205 0.500000
vt 0.604002 0.006885
vt 0.436152 0.303468
vt 0.562071 0.304544
vt 0.562686 0.447038
vt 0.605581 0.505054
vt 0.397693 0.803952
vt 0.326499 0.006735
vt 0.344964 0.244599
vt 0.157652 0.244569
vt 0.405194 0.250000
vt 0.610660 0.250000
vt 0.625000 0.280647
vt 0.625000 0.469353
vt 0.375000 0.279447
vt 0.385215 0.250000
vt 0.606063 0.250000
vt 0.625000 0.284627
vt 0.625000 0.470231
vt 0.614811 0.500000
vt 0.393984 0.500000
vt 0.375000 0.297066
vt 0.375000 0.960629
vt 0.335629 -0.000000
vt 0.389903 -0.000000
vt 0.389903 1.000000
vt 0.362426 0.006810
vt 0.664543 -0.000000
vt 0.625000 0.960457
vt 0.641386 0.006898
vt 0.609947 1.000000
vt 0.609947 -0.000000
vt 0.389588 0.262883
vt 0.349489 0.250000
vt 0.375000 0.275511
vt 0.369503 0.244910
vt 0.403787 0.248052
vt 0.618085 0.262756
vt 0.606081 0.248073
vt 0.632325 0.244921
vt 0.625000 0.275546
vt 0.650546 0.250000
vt 0.381915 0.487245
vt 0.393919 0.501927
vt 0.125000 0.244470
vt 0.375000 0.505530
vt 0.375000 0.474455
vt 0.150545 0.250000
vt 0.610411 0.487116
vt 0.849488 0.250000
vt 0.625000 0.474488
vt 0.625000 0.505532
vt 0.875000 0.244468
vt 0.596213 0.501948
vt 0.164543 -0.000000
vt 0.375000 0.789543
vt 0.375000 0.745742
vt 0.125000 0.004258
vt 0.396489 0.771667
vt 0.625000 0.789371
vt 0.835629 -0.000000
vt 0.602761 0.771543
vt 0.875000 0.004212
vt 0.625000 0.745789
vt 0.379827 0.264404
vt 0.375000 0.279272
vt 0.387343 0.263495
vt 0.391820 0.249997
vt 0.616761 0.266876
vt 0.609651 0.250394
vt 0.618241 0.265163
vt 0.625000 0.281862
vt 0.620184 0.485608
vt 0.625000 0.470760
vt 0.612660 0.486515
vt 0.608205 0.500003
vt 0.383143 0.483089
vt 0.390360 0.499606
vt 0.381757 0.484828
vt 0.375000 0.468075
vt 0.399312 0.298666
vt 0.379915 0.271117
vt 0.419854 0.267850
vt 0.600155 0.302296
vt 0.550142 0.268459
vt 0.581848 0.275562
vt 0.581091 0.481899
vt 0.600306 0.451621
vt 0.620152 0.478468
vt 0.399320 0.447731
vt 0.452870 0.481992
vt 0.422141 0.475091
vt 0.375000 1.000000
vt 0.375000 0.000000
vt 0.625000 0.000000
vt 0.625000 1.000000
vt 0.375000 0.250000
vt 0.625000 0.250000
vt 0.375000 0.500000
vt 0.125000 0.250000
vt 0.875000 0.250000
vt 0.625000 0.500000
vt 0.125000 0.000000
vt 0.375000 0.750000
vt 0.625000 0.750000
vt 0.875000 0.000000
vt 0.375000 0.250000
vt 0.625000 0.250000
vt 0.625000 0.500000
vt 0.375000 0.500000
vt 0.375000 0.250000
vt 0.625000 0.250000
vt 0.625000 0.500000
vt 0.375000 0.500000
vn -0.027604 -0.995962 0.085431
vn -0.363830 -0.929755 0.056424
vn -0.363497 -0.929741 -0.058761
vn -0.027840 -0.995990 -0.085021
vn -0.909823 -0.411643 0.052643
vn -0.996935 -0.055474 0.055158
vn -0.996941 -0.055492 -0.055037
vn -0.909798 -0.411414 -0.054828
vn -0.024543 -0.058656 0.997977
vn -0.016988 -0.413576 0.910311
vn 0.018593 -0.412999 0.910542
vn 0.024679 -0.058683 0.997972
vn -0.018565 -0.928231 0.371542
vn 0.027840 -0.995990 0.085021
vn 0.018909 -0.927959 0.372202
vn -0.918889 -0.068645 0.388498
vn -0.918262 -0.067787 0.390127
vn -0.996482 -0.057666 0.060816
vn -0.373645 -0.069658 0.924952
vn -0.026083 -0.051903 0.998311
vn -0.373064 -0.065152 0.925515
vn 0.996941 -0.055492 0.055037
vn 0.909798 -0.411414 0.054828
vn 0.909823 -0.411643 -0.052643
vn 0.996935 -0.055474 -0.055158
vn 0.363497 -0.929740 0.058761
vn 0.027604 -0.995962 -0.085431
vn 0.363830 -0.929755 -0.056424
vn 0.372078 -0.069922 0.925564
vn 0.371786 -0.065316 0.926018
vn 0.026037 -0.051916 0.998312
vn 0.918323 -0.068664 0.389832
vn 0.996447 -0.057705 0.061350
vn 0.917789 -0.067976 0.391207
vn -0.571502 -0.819154 0.048709
vn -0.532517 -0.749678 0.392949
vn -0.521992 -0.757076 0.392887
vn -0.585874 -0.809793 0.031420
vn -0.215719 -0.313090 0.924900
vn -0.006135 -0.008614 0.999944
vn -0.028853 -0.024742 0.999277
vn -0.214108 -0.254121 0.943176
vn -0.867276 -0.494858 0.054299
vn -0.867147 -0.495113 -0.054033
vn -0.996447 -0.057705 -0.061349
vn -0.571570 -0.819085 -0.049061
vn -0.016405 -0.030545 0.999399
vn 0.016388 -0.030537 0.999399
vn 0.006169 -0.008630 0.999944
vn 0.215421 -0.310923 0.925700
vn 0.213402 -0.254419 0.943255
vn 0.028829 -0.024558 0.999283
vn 0.533093 -0.749302 0.392885
vn 0.571561 -0.819093 0.049044
vn 0.585852 -0.809800 0.031635
vn 0.522645 -0.756612 0.392912
vn 0.867147 -0.495113 0.054030
vn 0.867276 -0.494858 -0.054297
vn 0.571493 -0.819161 -0.048693
vn 0.996482 -0.057666 -0.060816
vn -0.006172 -0.008634 -0.999944
vn -0.215569 -0.311092 -0.925609
vn -0.213593 -0.254124 -0.943291
vn -0.028872 -0.024596 -0.999281
vn -0.533159 -0.749335 -0.392732
vn -0.585906 -0.809760 -0.031665
vn -0.522789 -0.756580 -0.392783
vn -0.026037 -0.051916 -0.998312
vn -0.016388 -0.030537 -0.999399
vn 0.016405 -0.030545 -0.999399
vn 0.026083 -0.051903 -0.998311
vn 0.006133 -0.008611 -0.999944
vn -0.917789 -0.067977 -0.391207
vn -0.918323 -0.068664 -0.389832
vn -0.371786 -0.065316 -0.926018
vn -0.024679 -0.058683 -0.997972
vn -0.372077 -0.069922 -0.925564
vn 0.532467 -0.749653 -0.393065
vn 0.521884 -0.757099 -0.392987
vn 0.585818 -0.809834 -0.031398
vn 0.215600 -0.312950 -0.924975
vn 0.028825 -0.024714 -0.999279
vn 0.213957 -0.254365 -0.943144
vn 0.373064 -0.065152 -0.925515
vn 0.373645 -0.069658 -0.924952
vn 0.024543 -0.058656 -0.997977
vn 0.918263 -0.067787 -0.390127
vn 0.918889 -0.068645 -0.388498
vn -0.018909 -0.927959 -0.372202
vn 0.018565 -0.928231 -0.371542
vn -0.018593 -0.412999 -0.910542
vn 0.016988 -0.413576 -0.910311
vn -0.814383 0.577837 0.053721
vn -0.734512 0.561439 0.381155
vn -0.726501 0.575743 0.375123
vn -0.800134 0.597455 0.053233
vn -0.315607 0.305735 0.898286
vn -0.037845 0.124217 0.991533
vn -0.011336 0.109807 0.993888
vn -0.316008 0.325964 0.891003
vn -0.837563 -0.546341 -0.000910
vn -0.837563 -0.546341 -0.000910
vn -0.972863 0.224589 0.055661
vn -0.813991 0.577877 -0.058962
vn -0.973188 0.222975 -0.056453
vn -0.015166 0.047266 0.998767
vn 0.015129 0.046624 0.998798
vn 0.035493 0.123227 0.991744
vn 0.303870 0.294811 0.905952
vn 0.302828 0.315061 0.899462
vn 0.010085 0.110274 0.993850
vn 0.734363 0.555896 0.389475
vn 0.816801 0.574144 0.056527
vn 0.802433 0.594094 0.056161
vn 0.725631 0.571208 0.383641
vn 0.973986 0.219539 0.056164
vn 0.973628 0.221236 -0.055709
vn 0.816929 0.574104 -0.055064
vn 0.836965 -0.547256 0.000864
vn 0.836965 -0.547256 0.000864
vn 0.736846 0.558033 -0.381651
vn 0.728561 0.572788 -0.375649
vn 0.802610 0.594052 -0.054025
vn 0.311931 0.301683 -0.900937
vn 0.037403 0.124106 -0.991564
vn 0.011880 0.110851 -0.993766
vn 0.311557 0.321640 -0.894136
vn 0.015094 0.047308 -0.998766
vn -0.015209 0.046742 -0.998791
vn -0.035727 0.123685 -0.991678
vn -0.305364 0.298058 -0.904386
vn -0.304979 0.318436 -0.897545
vn -0.009529 0.109691 -0.993920
vn -0.729531 0.558944 -0.394164
vn -0.799781 0.597413 -0.058725
vn -0.721045 0.573611 -0.388671
vn -0.477658 0.876759 0.056013
vn -0.476992 0.875939 -0.072176
vn -0.118024 0.989945 0.077977
vn -0.117300 0.988953 -0.090621
vn -0.097674 0.928571 0.358072
vn -0.005519 0.933353 0.358916
vn 0.016114 0.996781 0.078537
vn -0.063708 0.482033 0.873834
vn 0.011459 0.481442 0.876403
vn 0.431541 0.900038 0.060859
vn 0.432493 0.899454 -0.062700
vn 0.016951 0.995917 -0.088663
vn -0.000961 0.930109 -0.367282
vn -0.092799 0.923952 -0.371082
vn 0.023472 0.478424 -0.877815
vn -0.051367 0.475149 -0.878405
vn -0.871886 -0.372553 0.317835
vn -0.313304 -0.896964 0.311924
vn -0.319184 -0.374161 0.870704
vn 0.310540 -0.893952 0.323131
vn 0.868734 -0.369937 0.329315
vn 0.311378 -0.366237 0.876878
vn -0.300109 -0.145639 0.942722
vn -0.797226 -0.414890 0.438516
vn 0.798013 -0.415529 0.436476
vn 0.302027 -0.145172 0.942181
vn -0.798012 -0.415527 -0.436481
vn -0.302022 -0.145168 -0.942183
vn 0.300113 -0.145643 -0.942720
vn 0.797228 -0.414892 -0.438511
vn -0.310540 -0.893952 -0.323131
vn -0.868734 -0.369937 -0.329315
vn -0.311378 -0.366237 -0.876878
vn 0.871886 -0.372553 -0.317835
vn 0.313304 -0.896964 -0.311924
vn 0.319184 -0.374161 -0.870704
vn -0.250207 -0.065404 0.965981
vn -0.851385 0.181924 0.491983
vn -0.702338 -0.489497 0.516831
vn -0.702338 -0.489497 0.516831
vn 0.854265 0.163427 0.493481
vn 0.248944 -0.077168 0.965439
vn 0.696875 -0.500779 0.513406
vn 0.696875 -0.500779 0.513406
vn 0.250277 -0.066811 -0.965866
vn 0.852137 0.178881 -0.491796
vn 0.701772 -0.490514 -0.516635
vn 0.701772 -0.490514 -0.516635
vn -0.853314 0.167245 -0.493846
vn -0.248876 -0.075368 -0.965599
vn -0.697630 -0.499418 -0.513705
vn -0.697630 -0.499418 -0.513705
vn -0.446071 0.831911 0.330068
vn -0.257461 0.529593 0.808236
vn 0.616623 0.713949 0.331743
vn 0.140224 0.936255 0.322124
vn 0.209233 0.521445 0.827235
vn 0.227588 0.527769 -0.818330
vn 0.150371 0.934766 -0.321871
vn 0.624145 0.712692 -0.320175
vn -0.436965 0.827091 -0.353528
vn -0.237437 0.513901 -0.824336
s 1
g Upgrade
usemtl blinn1SG
f 2/1/1 1/57/2 45/90/3 50/41/4
s 2
f 1/58/5 6/42/6 46/11/7 45/89/8
s 3
f 4/2/9 3/59/10 11/66/11 10/36/12
s 1
f 3/60/13 2/1/1 12/3/14 11/65/15
s 2
f 6/42/6 5/61/16 17/70/17 16/43/18
s 3
f 5/61/19 4/2/9 18/6/20 17/70/21
s 4
f 8/4/22 7/62/23 51/95/24 56/15/25
s 1
f 7/63/26 12/3/14 52/16/27 51/94/28
s 3
f 10/36/12 9/64/29 25/74/30 24/7/31
s 4
f 9/64/32 8/4/22 26/8/33 25/74/34
s 2
f 14/5/35 13/67/36 61/101/37 60/49/38
s 3
f 13/67/39 20/45/40 62/21/41 61/101/42
s 2
f 16/43/18 15/68/43 35/82/44 34/44/45
f 15/69/43 14/5/35 36/9/46 35/81/44
s 3
f 20/45/40 19/71/47 23/73/48 22/46/49
f 19/71/47 18/6/20 24/7/31 23/73/48
f 22/46/49 21/72/50 69/105/51 68/22/52
s 4
f 21/72/53 28/47/54 70/23/55 69/105/56
f 28/47/54 27/75/57 39/85/58 38/48/59
f 27/76/57 26/8/33 40/14/60 39/84/58
s 8
f 30/10/61 29/77/62 85/113/63 84/26/64
s 2
f 29/77/65 36/9/46 86/19/66 85/113/67
s 8
f 32/12/68 31/78/69 43/88/70 42/40/71
f 31/78/69 30/10/61 44/13/72 43/88/70
s 2
f 34/44/45 33/79/73 47/92/74 46/11/7
s 8
f 33/80/75 32/12/68 48/17/76 47/91/77
s 4
f 38/48/59 37/83/78 77/109/79 76/24/80
s 8
f 37/83/81 44/13/72 78/25/82 77/109/83
f 42/40/71 41/86/84 55/98/85 54/18/86
s 4
f 41/87/87 40/14/60 56/15/25 55/97/88
s 1
f 50/41/4 49/93/89 53/96/90 52/16/27
s 8
f 49/93/91 48/17/76 54/18/86 53/96/92
s 10
f 58/20/93 57/99/94 91/116/95 90/56/96
s 3
f 57/99/97 64/50/98 92/29/99 91/116/100
s 2
f 60/49/38 59/100/101 87/114/102 86/19/66
s 10
f 59/100/103 58/20/93 88/27/104 87/114/105
s 3
f 64/50/98 63/102/106 67/104/107 66/51/108
f 63/102/106 62/21/41 68/22/52 67/104/107
f 66/51/108 65/103/109 99/120/110 98/30/111
s 10
f 65/103/112 72/52/113 100/31/114 99/120/115
f 72/52/113 71/106/116 75/108/117 74/53/118
s 4
f 71/106/119 70/23/55 76/24/80 75/108/120
s 10
f 74/53/118 73/107/121 105/123/122 104/32/123
s 8
f 73/107/124 80/54/125 106/34/126 105/123/127
f 80/54/125 79/110/128 83/112/129 82/55/130
f 79/110/128 78/25/82 84/26/64 83/112/129
f 82/55/130 81/111/131 111/126/132 110/35/133
s 10
f 81/111/134 88/27/104 112/28/135 111/126/136
f 90/56/96 89/115/137 107/124/138 112/28/135
f 89/115/137 94/37/139 108/33/140 107/124/138
f 94/37/139 93/117/141 97/119/142 96/38/143
s 3
f 93/117/144 92/29/99 98/30/111 97/119/145
s 10
f 96/38/143 95/118/146 103/122/147 102/39/148
f 95/118/146 100/31/114 104/32/123 103/122/147
f 102/39/148 101/121/149 109/125/150 108/33/140
s 8
f 101/121/151 106/34/126 110/35/133 109/125/152
s 3
f 4/2/9 10/36/12 24/7/31 18/6/20
s 10
f 94/37/139 96/38/143 102/39/148 108/33/140
s 8
f 32/12/68 42/40/71 54/18/86 48/17/76
s 1
f 50/41/4 52/16/27 12/3/14 2/1/1
s 4
f 8/4/22 56/15/25 40/14/60 26/8/33
s 2
f 46/11/7 6/42/6 16/43/18 34/44/45
s 3
f 20/45/40 22/46/49 68/22/52 62/21/41
s 4
f 28/47/54 38/48/59 76/24/80 70/23/55
s 8
f 44/13/72 30/10/61 84/26/64 78/25/82
s 2
f 36/9/46 14/5/35 60/49/38 86/19/66
s 3
f 64/50/98 66/51/108 98/30/111 92/29/99
s 10
f 72/52/113 74/53/118 104/32/123 100/31/114
s 8
f 80/54/125 82/55/130 110/35/133 106/34/126
s 10
f 88/27/104 58/20/93 90/56/96 112/28/135
s 2
f 5/61/16 6/42/6 1/58/5 113/128/153
s 1
f 1/57/2 2/1/1 3/60/13 113/127/154
s 3
f 3/59/10 4/2/9 5/61/19 113/128/155
s 1
f 11/65/15 12/3/14 7/63/26 114/130/156
s 4
f 7/62/23 8/4/22 9/64/32 114/129/157
s 3
f 9/64/29 10/36/12 11/66/11 114/129/158
f 19/71/47 20/45/40 13/67/39 115/131/159
s 2
f 13/67/36 14/5/35 15/69/43 115/131/160
f 15/68/43 16/43/18 17/70/17 115/131/160
s 3
f 17/70/21 18/6/20 19/71/47 115/131/159
s 4
f 27/75/57 28/47/54 21/72/53 116/132/161
s 3
f 21/72/50 22/46/49 23/73/48 116/132/162
f 23/73/48 24/7/31 25/74/30 116/132/162
s 4
f 25/74/34 26/8/33 27/76/57 116/132/161
s 2
f 35/81/44 36/9/46 29/77/65 117/133/163
s 8
f 29/77/62 30/10/61 31/78/69 117/133/164
f 31/78/69 32/12/68 33/80/75 117/133/164
s 2
f 33/79/73 34/44/45 35/82/44 117/134/163
s 8
f 43/88/70 44/13/72 37/83/81 118/136/165
s 4
f 37/83/78 38/48/59 39/85/58 118/136/166
f 39/84/58 40/14/60 41/87/87 118/135/166
s 8
f 41/86/84 42/40/71 43/88/70 118/136/165
s 1
f 49/93/89 50/41/4 45/90/3 119/138/167
s 2
f 45/89/8 46/11/7 47/92/74 119/137/168
s 8
f 47/91/77 48/17/76 49/93/91 119/138/169
s 4
f 55/97/88 56/15/25 51/95/24 120/140/170
s 1
f 51/94/28 52/16/27 53/96/90 120/139/171
s 8
f 53/96/92 54/18/86 55/98/85 120/139/172
s 3
f 63/102/106 64/50/98 57/99/97 121/141/173
s 10
f 57/99/94 58/20/93 59/100/103 121/141/174
s 2
f 59/100/175 60/49/38 61/101/37 121/141/176
s 3
f 61/101/42 62/21/41 63/102/106 121/141/173
s 10
f 71/106/116 72/52/113 65/103/112 122/142/177
s 3
f 65/103/109 66/51/108 67/104/107 122/142/178
f 67/104/107 68/22/52 69/105/51 122/142/178
s 4
f 69/105/56 70/23/55 71/106/179 122/142/180
s 8
f 79/110/128 80/54/125 73/107/124 123/143/181
s 10
f 73/107/121 74/53/118 75/108/117 123/143/182
s 4
f 75/108/183 76/24/80 77/109/79 123/143/184
s 8
f 77/109/83 78/25/82 79/110/128 123/143/181
s 10
f 87/114/105 88/27/104 81/111/134 124/144/185
s 8
f 81/111/131 82/55/130 83/112/129 124/144/186
f 83/112/129 84/26/64 85/113/63 124/144/186
s 2
f 85/113/67 86/19/66 87/114/187 124/144/188
s 10
f 93/117/141 94/37/139 89/115/137 125/145/189
f 89/115/137 90/56/96 91/116/95 125/145/189
s 3
f 91/116/100 92/29/99 93/117/144 125/145/190
s 10
f 99/120/115 100/31/114 95/118/146 126/146/191
f 95/118/146 96/38/143 97/119/142 126/146/192
s 3
f 97/119/145 98/30/111 99/120/110 126/146/193
s 8
f 105/123/127 106/34/126 101/121/151 127/147/194
s 10
f 101/121/149 102/39/148 103/122/147 127/147/195
f 103/122/147 104/32/123 105/123/122 127/147/196
f 111/126/136 112/28/135 107/124/138 128/148/197
f 107/124/138 108/33/140 109/125/150 128/148/197
s 8
f 109/125/152 110/35/133 111/126/132 128/148/198
